# xmcd
#
# Track frame offsets:
#	183
#	12310
#	24435
#	34548
#	50335
#	65740
#	74903
#	86953
#	100060
#	113473
#	127910
#	141578
#	150000
#	161693
#	178285
#	192515
#	206395
#	215015
#	225285
#	239653
#	252405
#	267898
#	281010
#	295593
#
# Disc length: 4047
#
# Revision: 2
# Processed by: cddbd v1.5.1PL0 Copyright (c) Steve Scherf et al.
# Submitted via: CDRider 2.0
# Normalized: r1:TRMNUM
#
DISCID=600fcd18
DTITLE=Various Artist - Blues and Boogie Woogie
DYEAR=1990
DGENRE=Blues
TTITLE0=FAST BLUES
TTITLE1=THREE KINGS
TTITLE2=BOOSTER BLUES
TTITLE3=BLUES FOR MEMPHIS
TTITLE4=BASEMENT BLUES
TTITLE5=TEXAS SLIDE
TTITLE6=RICE and TUNA
TTITLE7=TIN PAN BLUES
TTITLE8=EXHIBITION BLUES
TTITLE9=SOUTHSIDE ROUMOURS
TTITLE10=BLACK BOX BLUES
TTITLE11=BOOGIE EXPRESS
TTITLE12=BLUESY SHADOW
TTITLE13=HUMPHREY BOOGIE
TTITLE14=St JAMES INFERMARY
TTITLE15=HEAT ROAD
TTITLE16=ROCKING CHAIR
TTITLE17=NINE STRINGS BLUES
TTITLE18=COTTON
TTITLE19=BOSTON BOOGIE
TTITLE20=SCREEN WRITERS
TTITLE21=TOMMY
TTITLE22=FOUR STRINGS BLUES
TTITLE23=DON'T WAIT FOR ME TONIGHT
EXTD=
EXTT0=
EXTT1=
EXTT2=
EXTT3=
EXTT4=
EXTT5=
EXTT6=
EXTT7=
EXTT8=
EXTT9=
EXTT10=
EXTT11=
EXTT12=
EXTT13=
EXTT14=
EXTT15=
EXTT16=
EXTT17=
EXTT18=
EXTT19=
EXTT20=
EXTT21=
EXTT22=
EXTT23=
PLAYORDER=
